<?xml version="1.0" encoding="UTF-8"?>
<svg id="Layer_2" data-name="Layer 2" xmlns="http://www.w3.org/2000/svg" viewBox="0 0 182.26 167.79">
  <defs>
    <style>
      .cls-1 {
        fill: blue;
      }

      .cls-1, .cls-2 {
        stroke-width: 0px;
      }

      .cls-2 {
        fill: #000;
      }
    </style>
  </defs>
  <g id="Layer_1-2" data-name="Layer 1">
    <g>
      <path class="cls-1" d="M73.25,167.29h-.1s-2.85-.49-2.85-.49c-.44-.07-.74-.48-.68-.92l6.7-54.79c.09-.77-.32-1.43-1.15-1.8-.36-.17-.74-.25-1.12-.25-.52,0-1.02.16-1.45.46l-49.99,34.93c-.14.1-.3.15-.47.15-.2,0-.39-.07-.54-.2l-1.99-1.73c-.17-.15-.28-.37-.28-.59s.08-.45.24-.61l45.34-45.74c.52-.52.65-1.19.37-1.82-.3-.66-.98-1.1-1.82-1.19L1.24,85.88c-.42-.05-.73-.39-.74-.81,0-.43.3-.77.72-.83l67.97-8.78c.72-.09,1.32-.45,1.66-.98.32-.51.34-1.08.06-1.6l-28.84-53.52c-.14-.26-.14-.56.01-.81.15-.25.43-.41.72-.41.22,0,.42.09.58.24l41.02,40.89c.44.44,1.05.68,1.73.68.17,0,.34-.02.51-.05.82-.15,1.45-.64,1.69-1.31L108.19,1.06c.12-.33.43-.56.78-.56h.14s2.85.49,2.85.49c.44.07.74.48.68.92l-6.7,54.78c-.09.77.33,1.43,1.15,1.81.36.17.74.25,1.12.25.52,0,1.02-.16,1.44-.46l49.99-34.92c.14-.1.3-.15.47-.15.2,0,.39.07.54.2l2,1.73c.17.15.28.37.28.59,0,.23-.08.45-.24.61l-45.34,45.74c-.52.52-.65,1.19-.37,1.82.3.66.98,1.1,1.82,1.2l62.2,6.78c.42.05.73.39.74.81,0,.43-.3.78-.72.83l-67.97,8.78c-.67.09-1.23.49-1.53,1.09s-.3,1.29.02,1.88l28.63,53.13c.14.26.14.56-.01.81-.15.25-.43.41-.72.41-.22,0-.42-.09-.58-.24l-41.02-40.89c-.44-.44-1.05-.68-1.72-.68-.17,0-.34.02-.51.05-.83.15-1.46.64-1.69,1.31l-19.87,57.53c-.12.33-.43.56-.78.56h-.04ZM74.05,105.03c1.1,0,2.21.24,3.21.71,2.48,1.14,3.84,3.36,3.55,5.79l-4.17,34.12,12.99-37.62c.72-2.09,2.62-3.6,5.09-4.05.48-.09.97-.13,1.44-.13,1.97,0,3.77.72,5.08,2.02l23.81,23.73-17.75-32.95c-.92-1.71-.85-3.63.19-5.29,1.02-1.62,2.83-2.71,4.94-2.98l30.35-3.92c.88-.11,1.19-.8,1.18-1.36s-.32-1.24-1.21-1.33l-24.48-2.67c-2.5-.27-4.53-1.64-5.45-3.66-.94-2.06-.5-4.29,1.16-5.96l27.19-27.43c.09-.09.11-.18.07-.28-.05-.11-.15-.19-.25-.19-.05,0-.1.02-.16.06l-28.37,19.82c-1.23.86-2.7,1.32-4.24,1.32-1.1,0-2.21-.24-3.21-.7-2.49-1.14-3.84-3.36-3.55-5.79l4-32.67c0-.08-.02-.11-.03-.12-.03-.03-.08-.06-.14-.06-.09,0-.12.05-.13.11l-12.52,36.24c-.72,2.09-2.62,3.6-5.09,4.05-.48.09-.96.13-1.44.13-1.96,0-3.77-.72-5.08-2.02l-23.81-23.73,17.75,32.95c.92,1.71.85,3.63-.19,5.29-1.03,1.62-2.83,2.71-4.94,2.98l-34.27,4.43c-.57.07-.77.52-.77.89s.21.81.79.87l28.4,3.1c2.49.27,4.53,1.64,5.45,3.66.94,2.06.5,4.29-1.16,5.96l-29.3,29.56,30.82-21.53c1.23-.86,2.7-1.32,4.24-1.32Z"/>
      <path class="cls-2" d="M108.98,1s.04,0,.05,0l2.85.48c.17.03.29.19.27.36l-6.7,54.78c-.12.98.42,1.85,1.44,2.32.43.2.88.3,1.33.3.61,0,1.21-.18,1.73-.55l49.99-34.93c.06-.04.12-.06.19-.06.08,0,.15.03.22.08l1.99,1.73c.14.12.15.34.02.48l-45.34,45.74c-.66.67-.84,1.56-.47,2.38.37.82,1.2,1.37,2.22,1.49l62.2,6.78c.39.04.39.6,0,.65l-67.97,8.78c-1.75.24-2.72,2.15-1.88,3.71l28.63,53.13c.13.25-.07.49-.29.49-.08,0-.16-.03-.23-.1l-41.02-40.89c-.54-.53-1.28-.83-2.08-.83-.2,0-.4.02-.6.06-1.01.18-1.78.8-2.07,1.64l-19.87,57.53c-.05.13-.17.22-.31.22-.02,0-.04,0-.05,0l-2.85-.48c-.17-.03-.29-.19-.27-.36l6.7-54.78c.12-.98-.42-1.85-1.43-2.32-.43-.2-.88-.3-1.33-.3-.61,0-1.21.18-1.73.55l-49.99,34.93c-.06.04-.12.06-.19.06-.08,0-.15-.03-.22-.08l-1.99-1.73c-.14-.12-.15-.34-.02-.48l45.34-45.74c.66-.67.84-1.56.47-2.38-.37-.82-1.2-1.37-2.22-1.48L1.29,85.39c-.39-.04-.39-.6,0-.65l67.97-8.78c.87-.11,1.6-.55,2.02-1.21.42-.66.44-1.43.08-2.11l-28.84-53.52c-.13-.25.07-.49.29-.49.08,0,.16.03.23.1l41.02,40.89c.54.53,1.28.83,2.08.83.2,0,.4-.02.6-.05,1.01-.18,1.78-.8,2.07-1.64L108.67,1.22c.05-.13.17-.22.31-.22M86.11,63.45c-1.8,0-3.5-.66-4.72-1.88l-24.63-24.55c-.07-.07-.15-.1-.23-.1-.22,0-.42.24-.29.49l18.31,33.97c.83,1.54.77,3.29-.18,4.78-.95,1.5-2.62,2.5-4.58,2.75l-34.27,4.43c-1.63.21-1.6,2.57.03,2.75l28.4,3.1c2.32.25,4.21,1.51,5.05,3.37.85,1.86.45,3.88-1.06,5.4l-30.64,30.91c-.23.23-.03.56.23.56.06,0,.13-.02.19-.06l32.38-22.62c1.16-.81,2.55-1.23,3.95-1.23,1.02,0,2.04.22,3,.66,2.28,1.05,3.53,3.07,3.26,5.27l-4.37,35.73c-.03.23.15.37.33.37.13,0,.25-.07.3-.22l13.52-39.16c.66-1.91,2.42-3.31,4.7-3.72.45-.08.91-.12,1.35-.12,1.8,0,3.51.66,4.72,1.88l24.63,24.55c.07.07.15.1.23.1.22,0,.42-.24.29-.49l-18.31-33.98c-.83-1.54-.77-3.29.18-4.78.94-1.5,2.62-2.5,4.58-2.75l30.35-3.92c2.18-.28,2.15-3.44-.04-3.68l-24.48-2.67c-2.32-.25-4.21-1.51-5.05-3.37-.85-1.86-.45-3.88,1.06-5.4l27.19-27.43c.53-.54.06-1.32-.54-1.32-.14,0-.3.04-.45.15l-28.37,19.82c-1.16.81-2.55,1.23-3.95,1.23-1.02,0-2.04-.22-3-.66-2.28-1.05-3.53-3.07-3.26-5.27l4-32.67c.06-.46-.3-.74-.66-.74-.25,0-.5.14-.61.44l-12.52,36.24c-.66,1.91-2.42,3.31-4.7,3.72-.45.08-.91.12-1.35.12M108.98,0c-.57,0-1.07.36-1.26.89l-19.87,57.53c-.17.5-.66.86-1.3.98-.14.02-.28.04-.42.04-.54,0-1.03-.19-1.37-.53L43.74,18.02c-.25-.25-.58-.39-.93-.39-.47,0-.91.25-1.15.65-.24.4-.25.89-.02,1.31l28.84,53.52c.2.36.18.74-.04,1.1-.26.41-.73.68-1.3.75L1.16,83.74c-.68.09-1.16.65-1.16,1.33s.5,1.23,1.18,1.31l62.2,6.78c.67.07,1.2.41,1.42.9.2.44.1.89-.27,1.26l-45.34,45.74c-.26.26-.4.62-.38.98.01.37.18.71.46.95l1.99,1.73c.24.21.55.33.87.33.27,0,.54-.08.76-.24l49.99-34.93c.34-.24.74-.37,1.16-.37.31,0,.61.07.91.2.36.17.95.55.86,1.29l-6.7,54.79c-.09.71.4,1.35,1.1,1.47l2.85.48c.07.01.15.02.22.02.57,0,1.07-.36,1.25-.89l19.87-57.53c.17-.5.66-.86,1.3-.98.14-.03.28-.04.42-.04.54,0,1.02.19,1.37.54l41.02,40.89c.25.25.58.39.93.39.47,0,.91-.25,1.15-.65.24-.4.25-.89.02-1.31l-28.63-53.13c-.24-.45-.25-.97-.02-1.42.23-.45.65-.75,1.16-.82l67.96-8.78c.68-.09,1.16-.65,1.16-1.33,0-.68-.5-1.23-1.18-1.31l-62.2-6.78c-.67-.07-1.2-.41-1.42-.91-.2-.44-.1-.89.27-1.26l45.34-45.74c.26-.26.4-.62.38-.98-.01-.37-.18-.71-.46-.95l-1.99-1.73c-.24-.21-.55-.33-.87-.33-.27,0-.54.08-.76.24l-49.99,34.93c-.34.24-.74.37-1.16.37-.31,0-.62-.07-.91-.2-.36-.17-.95-.55-.86-1.29L113.14,1.97c.09-.71-.4-1.35-1.1-1.47l-2.85-.48c-.07-.01-.15-.02-.22-.02h0ZM86.11,64.45c.51,0,1.03-.05,1.53-.14,2.64-.48,4.69-2.12,5.47-4.38l11.45-33.16-3.6,29.43c-.32,2.65,1.15,5.06,3.84,6.3,1.07.49,2.25.75,3.42.75,1.64,0,3.21-.49,4.52-1.41l26.28-18.36-25.4,25.62c-1.81,1.83-2.28,4.27-1.26,6.52.99,2.18,3.18,3.66,5.85,3.95l24.48,2.67c.7.08.76.66.76.84,0,.18-.05.77-.74.86l-30.35,3.92c-2.26.29-4.2,1.46-5.3,3.21-1.14,1.81-1.22,3.92-.21,5.79l16.15,29.96-21.4-21.34c-1.4-1.4-3.33-2.17-5.43-2.17-.51,0-1.02.05-1.53.14-2.64.48-4.69,2.12-5.47,4.38l-11.45,33.16,3.6-29.43c.32-2.65-1.15-5.06-3.84-6.3-1.07-.49-2.25-.75-3.42-.75-1.64,0-3.2.49-4.52,1.41l-26.28,18.36,25.4-25.63c1.81-1.83,2.29-4.27,1.26-6.52-.99-2.18-3.18-3.66-5.85-3.95l-28.4-3.1c-.22-.02-.34-.15-.34-.38,0-.23.11-.36.33-.38l34.27-4.43c2.26-.29,4.19-1.46,5.3-3.21,1.14-1.81,1.22-3.92.21-5.79l-16.15-29.96,21.4,21.34c1.4,1.4,3.33,2.17,5.43,2.17h0Z"/>
    </g>
  </g>
</svg>