<?xml version="1.0" encoding="UTF-8"?>
<svg id="Layer_2" data-name="Layer 2" xmlns="http://www.w3.org/2000/svg" viewBox="0 0 915.47 223.02">
  <defs>
    <style>
      .cls-1 {
        stroke: blue;
        stroke-miterlimit: 10;
      }

      .cls-1, .cls-2 {
        fill: #fff;
      }

      .cls-3 {
        fill: blue;
      }

      .cls-3, .cls-4, .cls-2 {
        stroke-width: 0px;
      }

      .cls-4 {
        fill: #000;
      }
    </style>
  </defs>
  <g id="Layer_1-2" data-name="Layer 1">
    <g>
      <rect class="cls-3" width="915.47" height="223.02"/>
      <path class="cls-4" d="M413.53,190.93s-.03-.04-.02-.07l21.41-51c.38-.91.23-1.87-.41-2.55-.64-.69-1.54-.87-2.41-.48l-48.62,21.63s-.05,0-.06-.02l-1.2-2.53s0-.05.02-.07l48.33-33.14c.67-.46,1.06-1.21,1.06-2.03s-.69-1.81-1.42-2.14l-45.4-21.15c-.32-.15-.18-.64.17-.59l54.57,7.68c.69.1,1.38-.15,1.9-.68s.76-1.26.68-1.99l-5.64-52.92c-.12-1.15,1.41-1.63,1.83-.57l17.28,43.88c.3.77,1.2,1.53,2,1.54s1.5-.38,1.94-1.08l32.29-50.46s.04-.03.07-.02l2.36,1.32s.03.04.02.06l-21.42,51c-.41.98-.2,2.01.56,2.7.62.57,1.54.66,2.32.31l48.56-21.6s.05,0,.06.02l1.2,2.53s0,.05-.02.07l-48.18,33.04c-.68.47-1.28,1.55-1.2,2.39s.54,1.49,1.25,1.82l38.83,18.09c1.48.69.82,2.91-.8,2.69l-47.22-6.65c-.69-.1-1.38.15-1.9.68s-.76,1.26-.68,1.99l5.68,53.32c.12,1.09-1.33,1.54-1.72.53l-17.5-44.43c-.38-.97-1.31-1.53-2.39-1.34-.63.11-1.18.56-1.54,1.13l-32.24,50.38s-.04.03-.07.02l-2.36-1.32ZM459.69,138.53l19.52,27.87c.04.05.11.01.09-.05l-12.84-37.01c-.64-1.86-.24-3.88,1.12-5.38.98-1.08,2.41-1.66,3.86-1.73l24.55-1.29c2.39-.13,2.68-3.53.35-4.07l-18.93-4.32c-1.71-.39-3.24-1.5-3.93-3.12-.9-2.13-.43-4.43,1.18-5.99l31.06-30.17s-.01-.12-.07-.08l-31.76,21.18c-1.93,1.29-4.5,1.37-6.37,0-1.71-1.25-2.5-3.29-2.07-5.39l7.7-37.66c.01-.06-.08-.09-.1-.03l-16.15,39.95c-.66,1.63-2,2.96-3.71,3.38-2.25.55-4.44-.28-5.73-2.12l-12.53-17.14c-.04-.05-6.11-10.64-6.09-10.59l11.78,36.73c.48,1.38.49,2.92-.15,4.23-.88,1.82-2.6,2.96-4.57,3.06l-39.12,2.06c-.06,0-.07.09,0,.1l32.96,7.52c1.72.39,3.24,1.5,3.93,3.12.9,2.13.43,4.43-1.18,5.99l-31.06,30.17s.01.12.07.08l31.98-21.33c1.84-1.23,4.13-1.22,5.96.01,1.84,1.24,2.7,3.35,2.26,5.52l-7.7,37.66c-.01.06.08.09.1.03l16.16-39.96c.67-1.66,2.05-3,3.8-3.39.61-.14,1.22-.18,1.8-.12,1.53.15,2.92.95,3.83,2.26Z"/>
      <g>
        <path class="cls-2" d="M151.86,148.49c-1.18,3.95-3.16,7.46-5.92,10.56-2.76,3.1-6.42,5.58-10.98,7.44-4.56,1.86-10.22,2.79-16.98,2.79-11.27,0-19.94-2.96-26.03-8.87-6.08-5.92-9.13-14.62-9.13-26.11v-7.44h16.06v5.07c0,3.49.28,6.7.85,9.63.56,2.93,1.55,5.47,2.96,7.6,1.41,2.14,3.38,3.8,5.92,4.99,2.53,1.18,5.77,1.77,9.72,1.77,7.32,0,12.36-1.97,15.13-5.91,2.76-3.94,4.14-9.24,4.14-15.89V45.91h16.05v90.58c0,4.06-.59,8.06-1.77,12Z"/>
        <path class="cls-2" d="M218.02,166.58v-13.86h-.34c-3.04,5.41-6.93,9.38-11.66,11.92s-10.31,3.8-16.73,3.8c-5.75,0-10.54-.76-14.36-2.28-3.83-1.52-6.93-3.69-9.3-6.51-2.37-2.82-4.03-6.17-4.99-10.06-.96-3.89-1.44-8.2-1.44-12.93v-57.46h14.37v59.15c0,5.41,1.58,9.69,4.73,12.84,3.15,3.16,7.49,4.73,13.01,4.73,4.39,0,8.2-.68,11.41-2.03,3.21-1.35,5.89-3.27,8.03-5.75,2.14-2.48,3.74-5.38,4.82-8.7,1.07-3.32,1.61-6.96,1.61-10.9v-49.35h14.36v87.37h-13.52Z"/>
        <path class="cls-2" d="M251.48,45.91v120.67h-14.36V45.91h14.36Z"/>
        <path class="cls-2" d="M257.73,63.49v-17.58h14.36v17.58h-14.36ZM272.1,79.2v87.37h-14.36v-87.37h14.36Z"/>
        <path class="cls-2" d="M378.39,79.2v13.86h.34c5.97-10.59,15.43-15.89,28.39-15.89,5.75,0,10.53.79,14.37,2.37,3.83,1.58,6.93,3.78,9.29,6.59,2.37,2.82,4.03,6.17,4.99,10.06.96,3.89,1.44,8.2,1.44,12.93v57.46h-14.36v-59.15c0-5.41-1.58-9.69-4.73-12.84-3.16-3.15-7.49-4.73-13.01-4.73-4.39,0-8.2.68-11.41,2.03-3.21,1.35-5.89,3.27-8.03,5.75-2.14,2.48-3.75,5.38-4.82,8.7-1.07,3.32-1.61,6.96-1.61,10.9v49.35h-14.37v-87.37h13.52Z"/>
        <path class="cls-2" d="M490.44,45.91v107.15h63.88v13.52h-79.94V45.91h16.05Z"/>
        <path class="cls-2" d="M560.07,63.49v-17.58h14.37v17.58h-14.37ZM574.43,79.2v87.37h-14.37v-87.37h14.37Z"/>
        <path class="cls-2" d="M595.05,154.17h-.34v42.94h-14.37v-117.95h14.37v13.56h.34c2.37-4.73,6.08-8.18,11.15-10.32,5.07-2.15,10.65-3.22,16.73-3.22,6.76,0,12.65,1.21,17.66,3.64,5.01,2.42,9.18,5.7,12.51,9.83,3.32,4.13,5.83,8.89,7.52,14.29,1.69,5.4,2.54,11.12,2.54,17.18s-.82,10.79-2.45,16.18c-1.63,5.4-4.11,9.11-7.44,13.12-3.32,4.02-7.49,7.19-12.51,9.5,0,0-6.03,3.66-21.14,3.66-18.65,0-24.57-12.41-24.57-12.41ZM646.34,111.47c-1.07-3.8-2.7-7.19-4.9-10.16-2.2-2.97-5.01-5.34-8.45-7.1-3.44-1.76-7.47-2.64-12.08-2.64-4.85,0-8.96.94-12.34,2.81-3.38,1.87-6.14,4.32-8.28,7.35-2.14,3.03-3.69,6.47-4.65,10.32-.96,3.86-1.44,7.76-1.44,11.73,0,4.19.51,8.23,1.52,12.14,1.01,3.91,2.62,7.35,4.82,10.32s5.04,5.37,8.53,7.19c3.49,1.82,7.72,2.73,12.67,2.73s9.1-.93,12.42-2.81c3.32-1.87,6-4.35,8.03-7.43,2.03-3.08,3.49-6.61,4.39-10.57.9-3.96,1.35-8.04,1.35-12.22,0-3.96-.54-7.85-1.61-11.65Z"/>
        <path class="cls-2" d="M794.26,63.49v-17.58h14.37v17.58h-14.37ZM808.63,79.2v87.37h-14.37v-87.37h14.37Z"/>
        <path class="cls-2" d="M759.86,79.2v20h.33c3.41-6.94,7.6-12.05,12.55-15.36,4.95-3.3,11.23-4.84,18.83-4.62v14.86c-5.61,0-10.4.77-14.37,2.31-3.96,1.54-7.16,3.8-9.58,6.77-2.42,2.97-4.18,6.58-5.28,10.82-1.1,4.24-1.65,9.11-1.65,14.61v37.98h-14.04v-87.37h13.21Z"/>
        <g>
          <path class="cls-2" d="M710.07,168.08c-8.83,0-11.97-9.24-11.97-17.15,0-2.13.16-4.27.49-6.42-8.19,9.66-20.23,23.56-30.98,23.56-8.65,0-15.17-8.72-15.17-20.28,0-25.43,42.91-69.77,67.52-69.77,7.17,0,10.75,3.78,12.01,8.01,3.8-4.88,4.36-4.88,5.14-4.88.37,0,.75.11,1.5.32,1.36.39,3.9,1.1,6.65,1.1,1.4,0,2.58-.39,3.72-.77,1.01-.34,1.97-.65,2.97-.65h0c.84,0,2.22.17,2.85,1.3.24.43.54,1.34-.21,2.55-.76,1.23-3.52,5.54-7.71,12.07-4.1,6.4-9.61,14.98-16.06,25.08-1.93,3.04-4,6.18-6,9.22-7.08,10.75-14.41,21.87-14.41,27.24,0,1.91.92,1.91,1.41,1.91,5.26,0,18.6-10.71,36.58-29.38,15.25-15.83,28.43-31.73,30.46-35.3l.07-.1c.79-1.16,2.06-1.79,3.57-1.79,2,0,4.12,1.12,4.12,3.21,0,.48-.17.84-.29,1.07v.22l-.24.37c-1.52,2.37-23.69,28.34-34.77,40.32-8.18,8.7-28.54,28.93-41.24,28.93ZM721.41,85.29c-5.68,0-18.76,12.2-31.81,29.66-13.3,17.8-22.24,35.01-22.24,42.81,0,2.53,1.03,3.05,2.57,3.05,3.49,0,12.57-4.39,34.27-33.81,12.57-17.16,20.94-29.96,20.94-36.66,0-1.83-.69-3.38-2-4.48-.6-.38-1.17-.57-1.73-.57Z"/>
          <path class="cls-3" d="M719.96,79.53c7.85,0,11.05,5.12,11.05,10.24,3.2-4.27,5.53-7.11,6.11-7.11s4.07,1.42,8.14,1.42c2.91,0,4.94-1.42,6.69-1.42,0,0,.02,0,.07,0,.38,0,2.22.08,1.3,1.57-1.48,2.4-10.68,16.65-23.76,37.12-9.02,14.22-20.65,29.87-20.65,37.27,0,1.99.87,3.41,2.91,3.41,13.67,0,63.98-57.75,68.34-65.43.58-.85,1.45-1.14,2.33-1.14,1.16,0,2.62.57,2.62,1.71,0,.28-.29.57-.29.85-1.45,2.28-23.56,28.16-34.61,40.11-9.89,10.53-28.79,28.45-40.13,28.45-7.85,0-10.47-8.53-10.47-15.65,0-3.98.58-7.97,1.75-11.95-7.27,8.25-21.81,27.59-33.74,27.59-7.85,0-13.67-8.25-13.67-18.78,0-24.75,42.46-68.27,66.02-68.27M669.94,162.31c6.69,0,18.9-11.95,35.48-34.42,13.96-19.06,21.23-30.72,21.23-37.55,0-2.28-.87-4.27-2.62-5.69-.87-.57-1.74-.85-2.62-.85-13.96,0-55.55,56.04-55.55,73.96,0,3.13,1.45,4.55,4.07,4.55M719.96,76.53c-14,0-31.91,13.31-44,25.77-12.1,12.47-25.02,30.97-25.02,45.51,0,12.41,7.17,21.78,16.67,21.78,10.1,0,20.88-11.08,29.03-20.48-.03.61-.04,1.22-.04,1.83,0,11.33,5.29,18.65,13.47,18.65,5.76,0,13.11-3.57,22.46-10.92,8.29-6.51,16-14.37,19.86-18.48,10.6-11.46,33.18-37.78,34.95-40.55l.47-.74v-.33c.15-.35.29-.83.29-1.4,0-2.68-2.41-4.71-5.62-4.71-2.02,0-3.73.87-4.81,2.45l-.07.1-.06.11c-2.01,3.54-15.59,19.8-30.23,35-20.32,21.1-31.57,28.75-35.38,28.91-.01-.1-.03-.24-.03-.41,0-4.92,7.53-16.34,14.17-26.41,2.01-3.04,4.08-6.19,6.02-9.25,6.45-10.09,11.96-18.68,16.07-25.08,4.19-6.53,6.95-10.84,7.72-12.07,1.19-1.93.57-3.49.24-4.07-.73-1.32-2.23-2.07-4.1-2.07-.05,0-.09,0-.12,0-1.23,0-2.33.37-3.39.73-1.08.36-2.09.69-3.25.69-2.54,0-4.86-.66-6.24-1.05-.83-.23-1.33-.38-1.9-.38-1.31,0-2.23.42-4.74,3.46-2.06-3.78-6.1-6.59-12.41-6.59h0ZM669.94,159.31c-.8,0-1.07,0-1.07-1.55,0-7.38,9.02-24.62,21.94-41.91,14.25-19.08,26.18-29.06,30.6-29.06.24,0,.53.1.85.28.92.81,1.39,1.91,1.39,3.26,0,6.66-9.93,21.13-20.65,35.78-8.18,11.09-15.29,19.59-21.12,25.26-7.37,7.16-10.8,7.93-11.94,7.93h0Z"/>
        </g>
        <g>
          <path class="cls-2" d="M325.04,168.08c-8.83,0-11.97-9.24-11.97-17.15,0-2.13.16-4.27.49-6.42-8.19,9.66-20.23,23.56-30.98,23.56-8.65,0-15.17-8.72-15.17-20.28,0-25.43,42.91-69.77,67.52-69.77,5.18,0,10.4,2.5,12.03,7.98,3.78-4.85,4.34-4.85,5.13-4.85.37,0,.74.11,1.5.32,1.36.39,3.9,1.1,6.65,1.1,1.4,0,2.58-.39,3.72-.77,1.01-.34,1.97-.65,2.97-.65h0c.84,0,2.22.17,2.85,1.3.24.43.54,1.34-.21,2.55-.76,1.23-3.53,5.55-7.73,12.1-4.1,6.39-9.6,14.97-16.04,25.05-1.93,3.04-4,6.18-6,9.22-7.08,10.75-14.41,21.87-14.41,27.24,0,1.91.92,1.91,1.41,1.91,5.27,0,18.6-10.71,36.58-29.38,15.25-15.83,28.43-31.73,30.46-35.3l.06-.1c.79-1.16,2.06-1.79,3.57-1.79,2,0,4.12,1.12,4.12,3.21,0,.48-.17.84-.29,1.07v.22l-.24.37c-1.52,2.38-23.69,28.35-34.77,40.32-8.18,8.7-28.54,28.93-41.23,28.93ZM336.38,85.29c-5.68,0-18.76,12.2-31.81,29.66-13.3,17.8-22.24,35.01-22.24,42.81,0,2.53,1.03,3.05,2.57,3.05,3.49,0,12.57-4.39,34.27-33.81,12.57-17.16,20.94-29.96,20.94-36.66,0-1.83-.69-3.38-2-4.48-.6-.38-1.17-.57-1.73-.57Z"/>
          <path class="cls-3" d="M334.93,79.53c7.85,0,11.05,5.12,11.05,10.24,3.2-4.27,5.53-7.11,6.11-7.11s4.07,1.42,8.14,1.42c2.91,0,4.94-1.42,6.69-1.42,0,0,.02,0,.07,0,.38,0,2.22.08,1.3,1.57-1.48,2.4-10.68,16.65-23.76,37.12-9.02,14.22-20.65,29.87-20.65,37.27,0,1.99.87,3.41,2.91,3.41,13.67,0,63.98-57.75,68.34-65.43.58-.85,1.45-1.14,2.33-1.14,1.16,0,2.62.57,2.62,1.71,0,.28-.29.57-.29.85-1.45,2.28-23.56,28.16-34.61,40.11-9.89,10.53-28.79,28.45-40.13,28.45-7.85,0-10.47-8.53-10.47-15.65,0-3.98.58-7.97,1.75-11.95-7.27,8.25-21.81,27.59-33.74,27.59-7.85,0-13.67-8.25-13.67-18.78,0-24.75,42.46-68.27,66.02-68.27M284.91,162.31c6.69,0,18.9-11.95,35.48-34.42,13.96-19.06,21.23-30.72,21.23-37.55,0-2.28-.87-4.27-2.62-5.69-.87-.57-1.74-.85-2.62-.85-13.96,0-55.55,56.04-55.55,73.96,0,3.13,1.45,4.55,4.07,4.55M334.93,76.53c-14,0-31.91,13.31-44,25.77-12.1,12.47-25.02,30.97-25.02,45.51,0,12.41,7.17,21.78,16.67,21.78,10.1,0,20.88-11.08,29.03-20.48-.03.61-.04,1.22-.04,1.83,0,11.33,5.29,18.65,13.47,18.65,5.76,0,13.11-3.57,22.46-10.92,8.29-6.51,16-14.37,19.86-18.48,10.6-11.46,33.18-37.78,34.95-40.55l.47-.74v-.33c.15-.35.29-.83.29-1.4,0-2.68-2.41-4.71-5.62-4.71-2.02,0-3.73.87-4.81,2.45l-.07.1-.06.11c-2.01,3.54-15.59,19.8-30.23,35-20.32,21.1-31.57,28.75-35.38,28.91-.01-.1-.03-.24-.03-.41,0-4.92,7.53-16.34,14.17-26.41,2.01-3.04,4.08-6.19,6.02-9.25,6.45-10.09,11.96-18.68,16.06-25.08,4.19-6.53,6.96-10.84,7.72-12.08,1.19-1.93.57-3.49.24-4.07-.73-1.32-2.23-2.07-4.1-2.07-.05,0-.09,0-.12,0-1.23,0-2.33.37-3.39.73-1.08.36-2.09.69-3.25.69-2.54,0-4.86-.66-6.24-1.05-.83-.23-1.33-.38-1.9-.38-1.31,0-2.23.42-4.74,3.46-2.06-3.78-6.1-6.59-12.41-6.59h0ZM284.91,159.31c-.8,0-1.07,0-1.07-1.55,0-7.38,9.02-24.62,21.94-41.91,14.25-19.08,26.18-29.06,30.6-29.06.24,0,.53.1.85.28.92.81,1.39,1.91,1.39,3.26,0,6.66-9.93,21.13-20.65,35.78-8.18,11.09-15.29,19.59-21.12,25.26-7.37,7.16-10.8,7.93-11.94,7.93h0Z"/>
        </g>
        <path class="cls-1" d="M345.28,74.95c-.36-.19-.74-.07-.7-.55.09-.95,5.71-2.94,9.44-6.55,6.02-6.09,4.34-13.74,10.83-13.1,2.41.24,3.54,2.1,3.43,3.2-.65,6.62-19.66,17.33-23,17Z"/>
      </g>
      <g>
        <path class="cls-3" d="M427.72,196.77l-.15-.03-2.79-.76c-.43-.12-.69-.55-.59-.98l12-53.87c.17-.76-.18-1.45-.97-1.91-.41-.24-.87-.37-1.33-.37-.43,0-.86.11-1.24.33l-53.15,29.9c-.12.07-.26.11-.41.11-.23,0-.45-.09-.6-.26l-1.82-1.92c-.16-.17-.24-.39-.23-.62.01-.23.12-.44.3-.59l49.58-41.11c.57-.47.77-1.12.54-1.78-.23-.68-.87-1.19-1.7-1.37l-61.25-12.8c-.42-.09-.69-.46-.65-.88.04-.42.37-.74.8-.76l68.5-2.12c.72-.02,1.36-.32,1.75-.82.37-.47.45-1.04.22-1.59l-23.5-56.07c-.11-.26-.08-.54.07-.77.15-.23.42-.38.7-.38.24,0,.47.11.63.3l36.85,44.69c.45.54,1.15.86,1.92.86.08,0,.16,0,.24-.01.83-.07,1.51-.5,1.81-1.14l25.37-55.33c.13-.29.43-.48.75-.48h.07l.15.03,2.79.76c.43.12.69.55.59.98l-12,53.87c-.17.76.18,1.45.97,1.91.41.24.87.37,1.33.37.43,0,.86-.11,1.24-.33l53.15-29.9c.12-.07.26-.11.41-.11.23,0,.45.09.6.26l1.82,1.92c.16.17.24.39.22.62-.01.23-.12.44-.3.59l-49.57,41.11c-.57.47-.77,1.12-.54,1.77.23.68.87,1.19,1.7,1.37l61.25,12.8c.42.09.69.46.66.88s-.37.74-.8.76l-68.5,2.12c-.67.03-1.27.37-1.63.94s-.42,1.25-.16,1.88l23.33,55.66c.11.26.08.54-.07.77-.15.23-.42.38-.7.38-.24,0-.47-.11-.63-.3l-36.85-44.69c-.45-.54-1.15-.86-1.92-.86-.08,0-.16,0-.24.01-.84.07-1.51.5-1.81,1.14l-25.37,55.33c-.13.29-.43.48-.75.48h-.07ZM433.78,134.84c1.35,0,2.69.36,3.86,1.05,2.36,1.38,3.5,3.72,2.97,6.1l-7.47,33.55,16.59-36.18c.92-2.01,2.96-3.33,5.46-3.54.23-.02.46-.03.68-.03.26,0,.52.01.77.04,1.96.19,3.68,1.08,4.85,2.51l21.38,25.93-14.46-34.52c-.75-1.79-.49-3.7.71-5.24,1.18-1.51,3.08-2.42,5.21-2.49l30.59-.95c.89-.03,1.26-.68,1.31-1.23.05-.55-.2-1.26-1.07-1.44l-24.1-5.04c-2.46-.51-4.35-2.08-5.07-4.18-.73-2.14-.08-4.31,1.73-5.82l29.73-24.65s.15-.12.09-.29c-.04-.1-.13-.2-.25-.2-.04,0-.09.01-.14.04l-30.16,16.96c-1.09.61-2.33.93-3.61.93-1.35,0-2.69-.36-3.86-1.05-2.36-1.38-3.5-3.72-2.97-6.11l7.16-32.13c.02-.07,0-.1-.02-.12-.03-.04-.09-.07-.15-.07s-.1.03-.13.09l-15.98,34.85c-.92,2.01-2.96,3.33-5.46,3.54-.23.02-.45.03-.68.03-2.24,0-4.29-.93-5.63-2.54l-21.38-25.93,14.47,34.52c.75,1.79.49,3.7-.71,5.25-1.18,1.51-3.08,2.42-5.21,2.49l-34.54,1.07c-.58.02-.82.45-.85.81-.03.36.13.82.7.94l27.97,5.85c2.46.51,4.35,2.07,5.07,4.18.73,2.14.08,4.32-1.73,5.82l-32.13,26.65,32.87-18.51c1.09-.61,2.34-.94,3.61-.94Z"/>
        <path class="cls-4" d="M479.37,34.74s.06,0,.09.01l2.79.76c.17.05.27.22.23.39l-12,53.87c-.22.97.23,1.88,1.2,2.45.5.29,1.05.44,1.59.44.51,0,1.02-.13,1.48-.39l53.15-29.9c.05-.03.11-.04.16-.04.09,0,.17.04.24.1l1.82,1.92c.13.14.12.36-.03.48l-49.57,41.11c-.73.6-.99,1.47-.7,2.32.29.85,1.06,1.48,2.07,1.69l61.25,12.8c.38.08.33.64-.06.65l-68.5,2.12c-1.76.07-2.92,1.88-2.24,3.51l23.33,55.66c.1.25-.1.46-.31.46-.09,0-.18-.04-.25-.12l-36.85-44.69c-.55-.66-1.39-1.04-2.3-1.04-.09,0-.19,0-.28.01-1.02.08-1.85.62-2.22,1.43l-25.37,55.33c-.05.12-.17.19-.3.19-.03,0-.06,0-.09-.01l-2.79-.76c-.17-.05-.27-.22-.23-.39l12-53.87c.22-.97-.23-1.88-1.2-2.45-.5-.29-1.04-.44-1.59-.44-.51,0-1.02.13-1.48.39l-53.15,29.9c-.05.03-.11.04-.16.04-.09,0-.17-.04-.24-.1l-1.82-1.92c-.13-.14-.12-.36.03-.48l49.57-41.11c.73-.6.99-1.47.69-2.32-.29-.85-1.06-1.48-2.07-1.69l-61.25-12.8c-.38-.08-.33-.64.06-.65l68.5-2.12c.87-.03,1.65-.4,2.13-1.01.48-.61.58-1.38.28-2.09l-23.5-56.07c-.1-.25.1-.46.31-.46.09,0,.18.04.25.12l36.85,44.69c.55.66,1.39,1.04,2.31,1.04.09,0,.18,0,.28-.01,1.02-.09,1.85-.62,2.22-1.43l25.37-55.33c.05-.12.17-.19.3-.19M451.29,94.71c-2.08,0-4-.86-5.24-2.36l-22.13-26.83c-.07-.09-.16-.12-.25-.12-.21,0-.41.21-.31.46l14.92,35.6c.68,1.62.44,3.35-.64,4.74-1.09,1.4-2.85,2.23-4.83,2.29l-34.54,1.07c-1.64.05-1.84,2.4-.24,2.74l27.97,5.85c2.28.48,4.04,1.92,4.7,3.85.66,1.93.07,3.91-1.58,5.27l-33.5,27.79c-.26.21-.07.58.2.58.05,0,.11-.01.17-.05l34.43-19.37c1.03-.58,2.19-.87,3.36-.87,1.24,0,2.49.33,3.61.98,2.17,1.27,3.21,3.4,2.73,5.56l-7.83,35.14c-.05.24.14.4.33.4.11,0,.23-.06.29-.19l17.27-37.66c.84-1.84,2.73-3.06,5.04-3.25.21-.02.43-.03.64-.03.24,0,.48.01.72.04,1.8.18,3.42,1,4.52,2.33l22.13,26.83c.07.09.16.12.25.12.21,0,.41-.21.31-.46l-14.92-35.6c-.68-1.62-.44-3.35.64-4.74,1.09-1.4,2.85-2.23,4.83-2.3l30.59-.95c2.19-.07,2.47-3.22.32-3.67l-24.1-5.04c-2.28-.48-4.04-1.92-4.7-3.85s-.07-3.91,1.58-5.27l29.73-24.65c.6-.5.16-1.37-.48-1.37-.12,0-.26.03-.39.11l-30.16,16.96c-1.03.58-2.19.87-3.36.87-1.24,0-2.49-.33-3.61-.98-2.17-1.27-3.21-3.4-2.73-5.56l7.16-32.13c.11-.48-.27-.8-.65-.8-.23,0-.46.12-.58.38l-15.98,34.85c-.84,1.84-2.73,3.05-5.04,3.25-.21.02-.42.03-.63.03M479.37,33.74c-.52,0-.99.3-1.21.77l-25.37,55.33c-.22.48-.74.8-1.39.85-.06,0-.13,0-.19,0-.62,0-1.18-.25-1.54-.68l-36.85-44.69c-.25-.31-.63-.49-1.02-.49-.45,0-.87.22-1.12.6-.24.37-.29.83-.11,1.24l23.5,56.07c.16.38.11.76-.15,1.09-.3.38-.79.61-1.37.62l-68.5,2.12c-.68.02-1.22.53-1.28,1.21-.06.68.38,1.28,1.05,1.42l61.25,12.8c.66.14,1.15.53,1.33,1.04.16.46.02.89-.39,1.23l-49.57,41.11c-.28.23-.46.58-.48.94-.02.37.11.73.36.99l1.82,1.92c.25.26.6.42.96.42.23,0,.45-.06.65-.17l53.15-29.9c.3-.17.65-.26.99-.26.37,0,.74.1,1.08.3.34.2.89.64.73,1.37l-12,53.87c-.15.69.26,1.38.95,1.57l2.79.76c.11.03.23.05.35.05.52,0,.99-.3,1.21-.77l25.37-55.33c.22-.48.74-.8,1.39-.85.07,0,.14,0,.2,0,.62,0,1.18.25,1.53.68l36.85,44.69c.25.31.63.49,1.02.49.45,0,.87-.22,1.12-.6.24-.37.29-.83.11-1.24l-23.33-55.66c-.2-.47-.15-.98.12-1.41.27-.43.72-.69,1.23-.71l68.49-2.12c.68-.02,1.22-.53,1.28-1.21.06-.68-.38-1.28-1.05-1.42l-61.25-12.8c-.66-.14-1.15-.53-1.33-1.04-.16-.46-.02-.89.39-1.23l49.57-41.11c.28-.23.46-.58.48-.94.02-.37-.11-.73-.36-.99l-1.82-1.92c-.25-.26-.6-.41-.96-.41-.23,0-.45.06-.65.17l-53.15,29.9c-.31.17-.64.26-.99.26-.37,0-.75-.1-1.08-.3-.34-.2-.89-.64-.73-1.37l12-53.87c.15-.69-.26-1.38-.95-1.57l-2.79-.76c-.11-.03-.23-.05-.35-.05h0ZM451.29,95.71c.24,0,.48,0,.72-.03,2.68-.22,4.87-1.66,5.87-3.83l14.62-31.88-6.45,28.94c-.58,2.6.65,5.15,3.2,6.65,1.25.73,2.67,1.12,4.12,1.12,1.36,0,2.69-.35,3.85-1l27.94-15.72-27.77,23.03c-1.98,1.64-2.69,4.03-1.89,6.37.78,2.27,2.81,3.95,5.44,4.5l24.1,5.04c.69.14.69.73.68.91-.02.18-.12.76-.82.78l-30.59.95c-2.28.07-4.32,1.05-5.59,2.68-1.31,1.69-1.6,3.78-.77,5.74l13.15,31.39-19.23-23.32c-1.26-1.53-3.1-2.48-5.19-2.69-.27-.03-.55-.04-.82-.04-.24,0-.48.01-.72.03-2.68.22-4.87,1.65-5.87,3.83l-14.62,31.88,6.45-28.94c.58-2.6-.65-5.15-3.2-6.65-1.25-.73-2.67-1.12-4.12-1.12-1.36,0-2.69.35-3.85,1l-27.94,15.72,27.77-23.03c1.98-1.64,2.69-4.02,1.89-6.37-.78-2.27-2.81-3.95-5.44-4.5l-27.97-5.85c-.22-.05-.32-.18-.3-.41s.14-.34.37-.35l34.54-1.07c2.28-.07,4.32-1.05,5.59-2.68,1.31-1.69,1.6-3.79.77-5.75l-13.15-31.39,19.23,23.32c1.43,1.73,3.62,2.73,6.01,2.73h0Z"/>
      </g>
    </g>
  </g>
</svg>